<?xml version="1.0" encoding="UTF-8"?>
<svg id="Layer_1" data-name="Layer 1" xmlns="http://www.w3.org/2000/svg" viewBox="0 0 45.35 45.35">
  <defs>
    <style>
      .cls-1 {
        fill: #010101;
      }

      .cls-1, .cls-2 {
        stroke-width: 0px;
      }
    </style>
  </defs>
  <g>
    <path class="cls-1" d="M40.92,43.33h-.39c-1.48,0-2.43-.95-2.43-2.31v-3.87c0-1.36.95-2.31,2.43-2.31h.41c1.09,0,1.67.44,2.07,1.06.12.2.25.41.25.48,0,.04-.03.07-.08.09l-1.05.54c-.05.03-.1.07-.16.07-.04,0-.08-.03-.1-.09-.24-.56-.58-.77-.93-.77h-.41c-.52,0-.93.42-.93.94v1.19c0,.09.04.14.1.14.04,0,.05-.01.09-.03.27-.14.6-.25.86-.25h.39c1.28,0,2.31.95,2.31,2.31v.5c0,1.36-.95,2.31-2.45,2.31ZM41.87,40.52c0-.51-.43-.94-.94-.94h-.39c-.52,0-.93.42-.93.94v.5c0,.52.41.94.93.94h.39c.51,0,.94-.43.94-.94v-.5Z"/>
    <path class="cls-1" d="M40.86,30.95c-.31-1.86-1.45-2.71-2.98-2.79-.93-.05-2.15.32-3.05,1.11.41-1.03,1.25-3.63.45-6.77-.62-2.41-1.92-4.01-2.62-4.76h0c-.71.76-2.01,2.35-2.62,4.76-.84,3.27.12,5.96.5,6.9-.92-.88-2.22-1.29-3.19-1.24-1.53.09-2.68.93-2.98,2.79-.23,4.24,5.03,4.05,5.01,2.41-2.71-.21-.17-2.3.57-.34.13.43.15,1.27.15,1.44l-.05.22h-2.04v1.71h3.22s-.03.08-.04.13c-.42,1.47-2.76.97-2.76.97.16,2.1,1.83,2.47,2.76,2.23.04-.01.07-.03.1-.05l.03.11c.08.65.23,1.45.52,2.33.24.72.53,1.33.8,1.83v.05c.28-.5.57-1.11.81-1.83.3-.88.45-1.68.52-2.33l.02-.08c1.06.21,2.48-.28,2.63-2.26,0,0-2.34.51-2.76-.97-.01-.05-.03-.09-.04-.13h3.5v-1.71s-2.18,0-2.18,0v-.19s0,0,0,0c0,0,0-.99.15-1.47.75-1.96,3.28.13.57.34-.02,1.64,5.24,1.83,5.01-2.41Z"/>
  </g>
  <path class="cls-2" d="M26.05,21.93h-6.75c-.12,0-.17-.09-.17-.29v-.95c0-.2.05-.29.17-.29h6.75c.12,0,.17.09.17.29v.95c0,.2-.05.29-.17.29ZM26.05,24.95h-6.75c-.12,0-.17-.09-.17-.29v-.95c0-.2.05-.29.17-.29h6.75c.12,0,.17.09.17.29v.95c0,.2-.05.29-.17.29Z"/>
  <path class="cls-2" d="M19.03,9.79c-.02,1.08-.15,2.15-.54,3.19-.11.3-.28.58-.43.87-.09.17-.19.34-.28.52-.21.42-.23.85-.15,1.31.05.32.09.65.11.98.04.52-.21.87-.67,1.11-.39.2-.81.31-1.25.35-.38.03-.77.05-1.15.1-.48.07-.69.34-.68.83,0,.15.02.3.05.44.04.21.1.42.15.63.02.09.03.18.04.27.02.31-.11.55-.38.7-.53.3-1.11.49-1.71.6-1.3.24-2.59.2-3.86-.2-.3-.09-.58-.22-.86-.37-.39-.2-.5-.47-.42-.9.05-.27.14-.54.18-.81.03-.19.04-.39.02-.58-.03-.28-.2-.47-.46-.55-.22-.06-.45-.09-.67-.11-.37-.04-.74-.05-1.1-.1-.36-.05-.69-.19-.99-.39-.33-.21-.51-.51-.49-.9.01-.35.03-.7.1-1.05.13-.64,0-1.21-.35-1.74-.57-.87-.82-1.85-.95-2.86-.14-1.07-.13-2.13.08-3.19.17-.85.44-1.66.97-2.35.96-1.27,2.18-2.22,3.64-2.85,1.36-.58,2.78-.83,4.25-.72,2.73.21,4.96,1.39,6.65,3.55.43.55.69,1.2.87,1.87.21.77.28,1.55.29,2.36ZM6.79,15.55c.15-.02.4-.04.64-.08.47-.08.92-.21,1.32-.48.38-.26.65-.6.68-1.07.02-.27,0-.55-.03-.82-.09-.65-.52-1.08-1.17-1.17-.8-.11-1.57.01-2.3.36-.51.24-.85.63-.98,1.2-.06.28-.06.57-.03.85.05.43.26.76.65.97.35.19.73.23,1.22.23ZM13.47,11.89c-.12.01-.31.02-.51.05-.52.09-.9.36-1.08.88-.13.37-.15.75-.11,1.13.05.47.32.8.7,1.06.35.23.75.36,1.16.44.52.11,1.05.15,1.58.03.45-.11.81-.33.99-.78.1-.24.11-.5.11-.76-.01-.78-.38-1.34-1.08-1.67-.53-.25-1.1-.33-1.76-.37ZM11.26,17.9c.33,0,.53-.25.41-.55-.23-.57-.48-1.12-.73-1.68-.06-.14-.2-.18-.34-.17-.15,0-.27.05-.34.2-.11.24-.23.48-.33.72-.14.32-.27.64-.39.96-.08.22.02.39.23.48.13.05.26.04.39,0,.3-.11.6-.11.9,0,.07.02.14.03.21.05Z"/>
</svg>