<?xml version="1.0" encoding="UTF-8"?>
<svg id="Layer_1" data-name="Layer 1" xmlns="http://www.w3.org/2000/svg" viewBox="0 0 45.35 45.35">
  <defs>
    <style>
      .cls-1 {
        stroke-width: 0px;
      }
    </style>
  </defs>
  <path class="cls-1" d="M9.33,19.7l-5.75-5.75c-.11-.11-.11-.21,0-.33L13.51,3.69c.11-.11.21-.11.33,0l1.55,1.55c.11.11.11.21,0,.33L7.16,13.79c-.11.11-.11.21,0,.33l3.87,3.87c.11.11.11.21,0,.33l-1.38,1.38c-.11.11-.21.11-.33,0Z"/>
  <path class="cls-1" d="M14.63,25l-3.66-3.66c-.11-.11-.11-.21,0-.33l9.93-9.93c.11-.11.21-.11.33,0l3.66,3.66c1.86,1.86,1.84,4.22,0,6.06l-4.2,4.2c-1.86,1.86-4.2,1.86-6.06,0ZM23.18,18.8c.64-.64.64-1.71,0-2.34l-1.79-1.79c-.11-.11-.21-.11-.33,0l-6.51,6.51c-.11.11-.11.21,0,.33l1.79,1.79c.64.64,1.68.67,2.34,0l4.49-4.49Z"/>
  <path class="cls-1" d="M28.91,32.77l-2.47-2.47c-.11-.11-.21-.11-.33,0l-2.46,2.46c-.11.11-.21.11-.33,0l-1.07-1.07c-.11-.11-.11-.21,0-.33l2.46-2.46c.11-.11.11-.21,0-.33l-2.46-2.46c-.11-.11-.11-.21,0-.33l1.07-1.07c.11-.11.21-.11.33,0l2.46,2.46c.11.11.21.11.33,0l2.47-2.47c.11-.11.21-.11.33,0l1.07,1.07c.11.11.11.21,0,.33l-2.47,2.47c-.11.11-.11.21,0,.33l2.47,2.47c.11.11.11.21,0,.33l-1.07,1.07c-.11.11-.21.11-.33,0Z"/>
  <path class="cls-1" d="M31.86,42.23l-5.26-5.26c-.11-.11-.11-.21,0-.33l1.38-1.38c.11-.11.21-.11.33,0l1.53,1.53c.11.11.21.11.33,0l4.77-4.77c.11-.11.13-.23.05-.31-.06-.06-.11-.08-.21-.08l-.99.02c-.08.02-.15-.02-.18-.05-.05-.05-.03-.1-.05-.18l-.02-2c-.02-.08.02-.15.05-.18.05-.05.1-.03.18-.05l5.36-.02c.13,0,.21.02.29.1l.85.85c.11.11.11.21,0,.33l-8.22,8.22c-.11.11-.11.21,0,.33l1.53,1.53c.11.11.11.21,0,.33l-1.38,1.38c-.11.11-.21.11-.33,0Z"/>
</svg>