<?xml version="1.0" encoding="UTF-8"?>
<svg id="Layer_1" data-name="Layer 1" xmlns="http://www.w3.org/2000/svg" viewBox="0 0 45.35 45.35">
  <defs>
    <style>
      .cls-1 {
        stroke-width: 0px;
      }
    </style>
  </defs>
  <path class="cls-1" d="M25.21,10.12l-3.81-3.81c-.11-.11-.21-.11-.32,0l-2.13,2.13c-.11.11-.11.21,0,.32l3.12,3.12c.11.11.11.21,0,.32l-1.36,1.36c-.11.11-.21.11-.32,0l-3.12-3.12c-.11-.11-.21-.11-.32,0l-3.96,3.96c-.11.11-.21.11-.32,0l-1.52-1.52c-.11-.11-.11-.21,0-.32L20.92,2.78c.11-.11.21-.11.32,0l5.65,5.65c.11.11.11.21,0,.32l-1.36,1.36c-.11.11-.21.11-.32,0Z"/>
  <path class="cls-1" d="M24.75,26.47l-1.33-1.33c-.06-.06-.08-.14-.06-.22l2.35-8.09c.05-.18.4-.98.48-1.15l-.08-.05c-.35.42-2.59,2.79-3.86,4.05l-1.99,1.99c-.11.11-.21.11-.32,0l-1.52-1.52c-.11-.11-.11-.21,0-.32l9.77-9.77c.11-.11.21-.11.32,0l1.35,1.35c.06.06.08.14.06.22l-2.39,8.12c-.05.18-.4.98-.48,1.15l.08.05c.35-.42,2.59-2.79,3.86-4.05l2.02-2.02c.11-.11.21-.11.32,0l1.51,1.51c.11.11.11.21,0,.32l-9.77,9.77c-.11.11-.21.11-.32,0Z"/>
  <path class="cls-1" d="M34.79,27.96l-1.44-1.44c-.11-.11-.21-.11-.32,0l-3.96,3.96c-.11.11-.21.11-.32,0l-1.52-1.52c-.11-.11-.11-.21,0-.32l9.77-9.77c.11-.11.21-.11.32,0l3.28,3.28c1.83,1.83,1.79,4.16,0,5.96-1.59,1.59-3.99,1.68-5.81-.14ZM38.92,26.13c.62-.62.62-1.68,0-2.31l-1.44-1.44c-.11-.11-.21-.11-.32,0l-2.13,2.13c-.11.11-.11.21,0,.32l1.44,1.44c.62.62,1.68.62,2.31,0l.14-.14Z"/>
  <path class="cls-1" d="M5.4,32.35l-.48-.48c-1.81-1.81-1.81-4.15-.14-5.81l4.74-4.74c1.67-1.67,4-1.67,5.81.14l.5.5c1.33,1.33,1.51,2.59,1.23,3.83-.1.38-.19.8-.29.9-.05.05-.11.05-.21.02l-1.94-.62c-.1-.03-.21-.05-.27-.11-.05-.05-.06-.13-.02-.24.4-.98.24-1.65-.19-2.08l-.5-.5c-.64-.64-1.65-.62-2.29.02l-1.46,1.46c-.11.11-.13.22-.05.3.05.05.08.05.14.08.51.16,1.04.43,1.36.75l.48.48c1.57,1.57,1.67,4,0,5.67l-.61.61c-1.67,1.67-4,1.67-5.83-.16ZM9.99,30.06c.62-.62.62-1.68,0-2.31l-.48-.48c-.64-.64-1.65-.62-2.29.02l-.61.61c-.64.64-.66,1.65-.02,2.29l.48.48c.62.62,1.68.62,2.31,0l.61-.61Z"/>
  <path class="cls-1" d="M19.91,40.14l-2.43-2.43c-.11-.11-.21-.11-.32,0l-2.42,2.42c-.11.11-.21.11-.32,0l-1.06-1.06c-.11-.11-.11-.21,0-.32l2.42-2.42c.11-.11.11-.21,0-.32l-2.42-2.42c-.11-.11-.11-.21,0-.32l1.06-1.06c.11-.11.21-.11.32,0l2.42,2.42c.11.11.21.11.32,0l2.43-2.43c.11-.11.21-.11.32,0l1.06,1.06c.11.11.11.21,0,.32l-2.43,2.43c-.11.11-.11.21,0,.32l2.43,2.43c.11.11.11.21,0,.32l-1.06,1.06c-.11.11-.21.11-.32,0Z"/>
</svg>