<?xml version="1.0" encoding="UTF-8"?>
<svg id="Layer_1" data-name="Layer 1" xmlns="http://www.w3.org/2000/svg" viewBox="0 0 45.35 45.35">
  <defs>
    <style>
      .cls-1 {
        stroke-width: 0px;
      }
    </style>
  </defs>
  <path class="cls-1" d="M17.41,13.96l-1.13-1.13s-.05-.12-.02-.18l1.83-3.76c.03-.06.02-.11-.02-.15l-.98-.98c-.08-.08-.14-.08-.22,0l-2.72,2.72c-.08.08-.14.08-.22,0l-1.05-1.05c-.08-.08-.08-.14,0-.22l6.71-6.71c.08-.08.14-.08.22,0l2.48,2.48c1.25,1.25,1.24,2.85,0,4.09l-.11.11c-.56.56-1.68.74-2.39.6-.06-.01-.09,0-.13.04-.03.03-.07.11-.12.23l-1.8,3.7c-.05.1-.09.2-.12.23-.05.05-.12.06-.2-.02ZM21.13,7.71c.43-.43.43-1.16,0-1.58l-1.21-1.21c-.08-.08-.14-.08-.22,0l-1.46,1.46c-.08.08-.08.14,0,.22l1.21,1.21c.43.43,1.16.43,1.58,0l.1-.1Z"/>
  <path class="cls-1" d="M22.75,19.3l-1.11-1.11c-.06-.06-.08-.12-.03-.19l.82-1.49c.04-.07.01-.12-.04-.18l-1.57-1.57c-.06-.06-.11-.09-.18-.04l-1.49.82c-.07.04-.13.02-.19-.03l-1.1-1.1c-.08-.08-.09-.15-.03-.21.04-.04.14-.08.25-.14l8.57-4.57c.07-.04.13-.02.19.03l.79.79c.05.05.08.12.03.19l-4.57,8.57c-.04.09-.1.21-.14.25-.05.05-.13.04-.21-.03ZM23.53,14.56l.97-1.61c.05-.1.42-.62.48-.73l-.03-.03c-.11.07-.63.41-.74.47l-1.61.95c-.1.05-.23.12-.28.17-.05.05-.05.14.02.22l.8.8c.08.08.16.08.22.02.04-.04.11-.18.15-.26Z"/>
  <path class="cls-1" d="M28.82,19.5l-.99-.99c-.08-.08-.14-.08-.22,0l-2.72,2.72c-.08.08-.14.08-.22,0l-1.05-1.05c-.08-.08-.08-.14,0-.22l6.71-6.71c.08-.08.14-.08.22,0l2.26,2.26c1.25,1.25,1.23,2.86,0,4.09-1.09,1.09-2.74,1.16-3.99-.1ZM31.66,18.24c.43-.43.43-1.16,0-1.58l-.99-.99c-.08-.08-.14-.08-.22,0l-1.46,1.46c-.08.08-.08.14,0,.22l.99.99c.43.43,1.16.43,1.58,0l.1-.1Z"/>
  <path class="cls-1" d="M29.99,26.54l-1.05-1.05c-.08-.08-.08-.14,0-.22l6.71-6.71c.08-.08.14-.08.22,0l1.05,1.05c.08.08.08.14,0,.22l-6.71,6.71c-.08.08-.14.08-.22,0Z"/>
  <path class="cls-1" d="M34.04,30.59l-2.48-2.48c-.08-.08-.08-.14,0-.22l6.71-6.71c.08-.08.14-.08.22,0l2.48,2.48c1.25,1.25,1.24,2.85,0,4.09l-2.84,2.84c-1.25,1.25-2.84,1.25-4.09,0ZM39.81,26.39c.43-.43.43-1.16,0-1.58l-1.21-1.21c-.08-.08-.14-.08-.22,0l-4.4,4.4c-.08.08-.08.14,0,.22l1.21,1.21c.43.43,1.13.45,1.58,0l3.04-3.04Z"/>
  <path class="cls-1" d="M11.94,14.05l-2.62-2.62c-.08-.08-.14-.08-.22,0l-1.46,1.46c-.08.08-.08.14,0,.22l2.14,2.14c.08.08.08.14,0,.22l-.94.94c-.08.08-.14.08-.22,0l-2.14-2.14c-.08-.08-.14-.08-.22,0l-2.72,2.72c-.08.08-.14.08-.22,0l-1.05-1.05c-.08-.08-.08-.14,0-.22l6.71-6.71c.08-.08.14-.08.22,0l3.88,3.88c.08.08.08.14,0,.22l-.94.94c-.08.08-.14.08-.22,0Z"/>
  <path class="cls-1" d="M8.32,21.98l-1.05-1.05c-.08-.08-.08-.14,0-.22l6.71-6.71c.08-.08.14-.08.22,0l1.05,1.05c.08.08.08.14,0,.22l-6.71,6.71c-.08.08-.14.08-.22,0Z"/>
  <path class="cls-1" d="M14.42,28.09l-1.13-1.13s-.05-.12-.02-.18l1.83-3.76c.03-.06.02-.11-.02-.15l-.98-.98c-.08-.08-.14-.08-.22,0l-2.72,2.72c-.08.08-.14.08-.22,0l-1.05-1.05c-.08-.08-.08-.14,0-.22l6.71-6.71c.08-.08.14-.08.22,0l2.48,2.48c1.25,1.25,1.24,2.85,0,4.09l-.11.11c-.56.56-1.68.74-2.39.61-.06-.01-.09,0-.13.04-.03.03-.07.11-.12.23l-1.8,3.7c-.05.1-.09.2-.12.23-.05.05-.12.05-.2-.02ZM18.14,21.84c.43-.43.43-1.16,0-1.58l-1.21-1.21c-.08-.08-.14-.08-.22,0l-1.46,1.46c-.08.08-.08.14,0,.22l1.21,1.21c.43.43,1.16.43,1.58,0l.1-.1Z"/>
  <path class="cls-1" d="M19.57,33.24l-3.88-3.88c-.08-.08-.08-.14,0-.22l6.71-6.71c.08-.08.14-.08.22,0l3.88,3.88c.08.08.08.14,0,.22l-.94.94c-.08.08-.14.08-.22,0l-2.62-2.62c-.08-.08-.14-.08-.22,0l-1.46,1.46c-.08.08-.08.14,0,.22l2.15,2.15c.08.08.08.14,0,.22l-.94.94c-.08.08-.14.08-.22,0l-2.15-2.15c-.08-.08-.14-.08-.22,0l-1.56,1.56c-.08.08-.08.14,0,.22l2.62,2.62c.08.08.08.14,0,.22l-.94.94c-.08.08-.14.08-.22,0Z"/>
  <path class="cls-1" d="M27.34,36.6l-1.67-1.67c-.08-.08-.14-.08-.22,0l-1.66,1.66c-.08.08-.14.08-.22,0l-.73-.73c-.08-.08-.08-.14,0-.22l1.66-1.66c.08-.08.08-.14,0-.22l-1.66-1.66c-.08-.08-.08-.14,0-.22l.73-.73c.08-.08.14-.08.22,0l1.66,1.66c.08.08.14.08.22,0l1.67-1.67c.08-.08.14-.08.22,0l.73.73c.08.08.08.14,0,.22l-1.67,1.67c-.08.08-.08.14,0,.22l1.67,1.67c.08.08.08.14,0,.22l-.73.73c-.08.08-.14.08-.22,0Z"/>
  <path class="cls-1" d="M29.33,42.99l-3.55-3.55c-.08-.08-.08-.14,0-.22l.94-.94c.08-.08.14-.08.22,0l1.03,1.03c.08.08.14.08.22,0l3.22-3.22c.08-.08.09-.15.03-.21-.04-.04-.08-.05-.14-.06h-.67c-.06.02-.1,0-.12-.02-.03-.03-.02-.07-.03-.12v-1.35c-.02-.05,0-.1.02-.12.03-.03.07-.02.12-.03h3.62c.09-.01.14,0,.2.06l.57.57c.08.08.08.14,0,.22l-5.56,5.56c-.08.08-.08.14,0,.22l1.03,1.03c.08.08.08.14,0,.22l-.94.94c-.08.08-.14.08-.22,0Z"/>
</svg>