<?xml version="1.0" encoding="UTF-8"?>
<svg id="Layer_1" data-name="Layer 1" xmlns="http://www.w3.org/2000/svg" viewBox="0 0 45.35 45.35">
  <defs>
    <style>
      .cls-1 {
        stroke-width: 0px;
      }
    </style>
  </defs>
  <path class="cls-1" d="M16.82,13.92l-.94-.94c-.07-.07-.07-.13,0-.2l1.05-1.05c.79-.79,2.27-2.09,2.53-2.31l-.03-.05c-.11.05-.68.4-1.06.54l-2.69,1.03c-.06.02-.11.01-.15-.03l-.51-.51s-.05-.09-.03-.15l1.03-2.69c.14-.38.49-.95.54-1.06l-.05-.03c-.22.26-1.52,1.74-2.31,2.53l-1.05,1.05c-.07.07-.13.07-.2,0l-.95-.95c-.07-.07-.07-.13,0-.2l6.1-6.1c.07-.07.13-.07.2,0l.84.84s.05.09.03.15l-1.85,4.51c-.04.1-.26.48-.32.58l.03.03c.1-.06.49-.27.59-.31l4.51-1.85c.06-.02.11,0,.15.03l.84.84c.07.07.07.13,0,.2l-6.1,6.1c-.07.07-.13.07-.2,0Z"/>
  <path class="cls-1" d="M21.9,18.99l-3.53-3.53c-.07-.07-.07-.13,0-.2l6.1-6.1c.07-.07.13-.07.2,0l3.53,3.53c.07.07.07.13,0,.2l-.85.85c-.07.07-.13.07-.2,0l-2.38-2.38c-.07-.07-.13-.07-.2,0l-1.33,1.33c-.07.07-.07.13,0,.2l1.95,1.95c.07.07.07.13,0,.2l-.85.85c-.07.07-.13.07-.2,0l-1.95-1.95c-.07-.07-.13-.07-.2,0l-1.42,1.42c-.07.07-.07.13,0,.2l2.38,2.38c.07.07.07.13,0,.2l-.85.85c-.07.07-.13.07-.2,0Z"/>
  <path class="cls-1" d="M26.68,23.77l-3.53-3.53c-.07-.07-.07-.13,0-.2l6.1-6.1c.07-.07.13-.07.2,0l.95.95c.07.07.07.13,0,.2l-5.05,5.05c-.07.07-.07.13,0,.2l2.38,2.38c.07.07.07.13,0,.2l-.85.85c-.07.07-.13.07-.2,0Z"/>
  <path class="cls-1" d="M31.22,28.31l-3.53-3.53c-.07-.07-.07-.13,0-.2l6.1-6.1c.07-.07.13-.07.2,0l3.53,3.53c.07.07.07.13,0,.2l-.85.85c-.07.07-.13.07-.2,0l-2.38-2.38c-.07-.07-.13-.07-.2,0l-1.33,1.33c-.07.07-.07.13,0,.2l1.95,1.95c.07.07.07.13,0,.2l-.85.85c-.07.07-.13.07-.2,0l-1.95-1.95c-.07-.07-.13-.07-.2,0l-1.42,1.42c-.07.07-.07.13,0,.2l2.38,2.38c.07.07.07.13,0,.2l-.85.85c-.07.07-.13.07-.2,0Z"/>
  <path class="cls-1" d="M36,33.09l-3.53-3.53c-.07-.07-.07-.13,0-.2l6.1-6.1c.07-.07.13-.07.2,0l3.53,3.53c.07.07.07.13,0,.2l-.85.85c-.07.07-.13.07-.2,0l-2.38-2.38c-.07-.07-.13-.07-.2,0l-1.33,1.33c-.07.07-.07.13,0,.2l1.95,1.95c.07.07.07.13,0,.2l-.85.85c-.07.07-.13.07-.2,0l-1.95-1.95c-.07-.07-.13-.07-.2,0l-1.42,1.42c-.07.07-.07.13,0,.2l2.38,2.38c.07.07.07.13,0,.2l-.85.85c-.07.07-.13.07-.2,0Z"/>
  <path class="cls-1" d="M6.24,18.89l-3.53-3.53c-.07-.07-.07-.13,0-.2l6.1-6.1c.07-.07.13-.07.2,0l.95.95c.07.07.07.13,0,.2l-5.05,5.05c-.07.07-.07.13,0,.2l2.38,2.38c.07.07.07.13,0,.2l-.85.85c-.07.07-.13.07-.2,0Z"/>
  <path class="cls-1" d="M10.78,23.43l-3.53-3.53c-.07-.07-.07-.13,0-.2l6.1-6.1c.07-.07.13-.07.2,0l3.53,3.53c.07.07.07.13,0,.2l-.85.85c-.07.07-.13.07-.2,0l-2.38-2.38c-.07-.07-.13-.07-.2,0l-1.33,1.33c-.07.07-.07.13,0,.2l1.95,1.95c.07.07.07.13,0,.2l-.85.85c-.07.07-.13.07-.2,0l-1.95-1.95c-.07-.07-.13-.07-.2,0l-1.42,1.42c-.07.07-.07.13,0,.2l2.38,2.38c.07.07.07.13,0,.2l-.85.85c-.07.07-.13.07-.2,0Z"/>
  <path class="cls-1" d="M20.47,22.62l-1.09-1.09c-.07-.07-.13-.07-.2,0l-5.05,5.05c-.07.07-.13.07-.2,0l-.94-.94c-.07-.07-.07-.13,0-.2l5.05-5.05c.07-.07.07-.13,0-.2l-1.09-1.09c-.07-.07-.07-.13,0-.2l.85-.85c.07-.07.13-.07.2,0l3.52,3.52c.07.07.07.13,0,.2l-.85.85c-.07.07-.13.07-.2,0Z"/>
  <path class="cls-1" d="M20.39,33.04l-.94-.94c-.07-.07-.07-.13,0-.2l2.47-2.47c.07-.07.07-.13,0-.2l-1.86-1.86c-.07-.07-.13-.07-.2,0l-2.47,2.47c-.07.07-.13.07-.2,0l-.95-.95c-.07-.07-.07-.13,0-.2l6.1-6.1c.07-.07.13-.07.2,0l.95.95c.07.07.07.13,0,.2l-2.38,2.38c-.07.07-.07.13,0,.2l1.86,1.86c.07.07.13.07.2,0l2.38-2.38c.07-.07.13-.07.2,0l.94.94c.07.07.07.13,0,.2l-6.1,6.1c-.07.07-.13.07-.2,0Z"/>
  <path class="cls-1" d="M25.64,38.29l-1.01-1.01s-.07-.11-.03-.17l.75-1.35c.04-.06.01-.11-.04-.16l-1.43-1.43s-.1-.08-.16-.04l-1.35.75c-.06.04-.12.02-.17-.03l-1-1c-.07-.07-.08-.14-.03-.19.04-.04.13-.07.23-.13l7.79-4.15c.06-.04.12-.02.17.03l.72.72c.05.05.07.11.03.17l-4.15,7.79c-.04.08-.09.19-.13.23-.05.05-.12.04-.19-.03ZM26.35,33.98l.88-1.46c.05-.09.38-.56.44-.66l-.03-.03c-.1.06-.57.37-.67.43l-1.46.86c-.09.05-.21.11-.25.15-.05.05-.05.13.02.2l.73.73c.07.07.15.07.2.02.04-.04.1-.16.14-.24Z"/>
  <path class="cls-1" d="M29.97,42.62l-3.53-3.53c-.07-.07-.07-.13,0-.2l6.1-6.1c.07-.07.13-.07.2,0l.95.95c.07.07.07.13,0,.2l-5.05,5.05c-.07.07-.07.13,0,.2l2.38,2.38c.07.07.07.13,0,.2l-.85.85c-.07.07-.13.07-.2,0Z"/>
</svg>