<?xml version="1.0" encoding="UTF-8"?>
<svg id="Layer_1" data-name="Layer 1" xmlns="http://www.w3.org/2000/svg" viewBox="0 0 45.35 45.35">
  <defs>
    <style>
      .cls-1 {
        fill: #010101;
        stroke-width: 0px;
      }
    </style>
  </defs>
  <path class="cls-1" d="M21.59,21.75c1.34-1.87,1.09-3.59-.16-4.99-.76-.85-2.13-1.58-3.6-1.68,1.25-.54,4.22-2.06,6.23-5.46,1.55-2.61,1.81-5.11,1.85-6.38h0c-1.26.04-3.77.3-6.38,1.85-3.55,2.1-5.05,5.25-5.53,6.39-.03-1.55-.8-3.03-1.69-3.83-1.4-1.25-3.12-1.5-4.99-.16-3.87,3.46.85,7.84,2.25,6.41-2.16-2.52,1.84-2.14.79.2-.26.49-.97,1.23-1.12,1.38l-.23.15-1.76-1.76-1.47,1.47,2.78,2.78s-.1.04-.15.08c-1.63.91-3.22-1.55-3.22-1.55-1.67,1.95-.56,3.71.45,4.31.04.02.08.04.13.05l-.07.13c-.5.63-1.06,1.45-1.56,2.46-.41.83-.69,1.6-.89,2.27l-.03.05c.67-.2,1.44-.48,2.27-.89,1.01-.5,1.83-1.06,2.46-1.56l.09-.05c.73,1.1,2.38,1.9,4.22.32,0,0-2.45-1.58-1.55-3.22.03-.06.06-.11.08-.15l3.02,3.02,1.47-1.47-1.89-1.89.17-.17s0,0,0,0c0,0,.85-.85,1.4-1.14,2.34-1.05,2.72,2.95.2.79-1.44,1.4,2.94,6.11,6.41,2.25Z"/>
  <path class="cls-1" d="M37.87,38.04c1.34-1.87,1.09-3.59-.16-4.99-.76-.85-2.13-1.58-3.6-1.68,1.25-.54,4.22-2.06,6.23-5.46,1.55-2.61,1.81-5.11,1.85-6.38h0c-1.26.04-3.77.3-6.38,1.85-3.55,2.1-5.05,5.25-5.53,6.39-.03-1.55-.8-3.03-1.69-3.83-1.4-1.25-3.12-1.5-4.99-.16-3.87,3.46.85,7.84,2.25,6.41-2.16-2.52,1.84-2.14.79.2-.26.49-.97,1.23-1.12,1.38l-.23.15-1.76-1.76-1.47,1.47,2.78,2.78s-.1.04-.15.08c-1.63.91-3.22-1.55-3.22-1.55-1.67,1.95-.56,3.71.45,4.31.04.02.08.04.13.05l-.07.13c-.5.63-1.06,1.45-1.56,2.46-.41.83-.69,1.6-.89,2.27l-.03.05c.67-.2,1.44-.48,2.27-.89,1.01-.5,1.83-1.06,2.46-1.56l.09-.05c.73,1.1,2.38,1.9,4.22.32,0,0-2.45-1.58-1.55-3.22.03-.06.06-.11.08-.15l3.02,3.02,1.47-1.47-1.89-1.89.17-.17s0,0,0,0c0,0,.85-.85,1.4-1.14,2.34-1.05,2.72,2.95.2.79-1.44,1.4,2.94,6.11,6.41,2.25Z"/>
</svg>